<?xml version="1.0" standalone="no"?>
<!DOCTYPE svg PUBLIC "-//W3C//DTD SVG 20010904//EN"
 "http://www.w3.org/TR/2001/REC-SVG-20010904/DTD/svg10.dtd">
<svg version="1.0" xmlns="http://www.w3.org/2000/svg"
 width="310.000000pt" height="122.000000pt" viewBox="0 0 310.000000 122.000000"
 preserveAspectRatio="xMidYMid meet">

<g transform="translate(0.000000,122.000000) scale(0.100000,-0.100000)"
fill="#000000" stroke="none">
<path d="M210 1074 c-45 -20 -86 -59 -113 -109 -21 -38 -22 -53 -22 -276 l0
-236 30 -49 c19 -30 49 -60 79 -79 l49 -30 206 -3 c243 -4 290 3 351 55 75 64
80 85 80 346 0 222 -1 229 -25 276 -26 53 -60 85 -114 107 -50 21 -472 19
-521 -2z m127 -197 c15 -13 51 -37 80 -52 l51 -29 43 20 c24 10 63 34 87 52
24 18 50 31 58 28 25 -9 28 -36 7 -59 -41 -44 -54 -87 -28 -87 12 0 15 -16 15
-84 0 -65 3 -85 15 -90 8 -3 15 -15 15 -26 0 -11 -7 -20 -15 -20 -8 0 -15 -9
-15 -20 0 -19 -7 -20 -180 -20 -173 0 -180 1 -180 20 0 11 -4 20 -10 20 -5 0
-10 11 -10 25 0 14 5 25 10 25 6 0 10 35 10 85 0 78 2 85 20 85 11 0 20 2 20
5 0 13 -30 62 -44 74 -19 16 -21 57 -3 64 21 9 25 8 54 -16z"/>
<path d="M331 826 c-19 -23 12 -76 44 -76 25 0 25 -1 25 -85 l0 -85 70 0 70 0
0 85 0 85 28 0 c22 0 32 7 45 34 14 31 14 36 0 47 -12 11 -24 8 -69 -15 -47
-25 -52 -30 -38 -40 13 -10 7 -12 -34 -12 -41 0 -47 2 -35 11 13 10 9 16 -32
38 -55 31 -59 32 -74 13z"/>
<path d="M310 655 l0 -75 39 0 40 0 -1 75 -1 75 -38 0 -39 0 0 -75z m58 41 c4
-21 -14 -37 -35 -29 -14 5 -18 35 -6 47 12 12 38 1 41 -18z m0 -73 c5 -17 -26
-29 -40 -15 -6 6 -7 15 -3 22 9 14 37 9 43 -7z"/>
<path d="M560 655 l0 -75 40 0 40 0 0 75 0 75 -40 0 -40 0 0 -75z m59 51 c9
-11 8 -17 -4 -30 -19 -18 -45 -11 -45 13 0 32 28 42 49 17z m-1 -89 c2 -11 -3
-17 -17 -17 -23 0 -35 15 -26 31 10 15 39 6 43 -14z"/>
<path d="M310 515 c0 -13 25 -15 165 -15 140 0 165 2 165 15 0 13 -25 15 -165
15 -140 0 -165 -2 -165 -15z"/>
<path d="M1600 690 c0 -123 1 -130 20 -130 18 0 20 7 20 65 0 60 2 66 24 77
45 20 56 6 56 -72 0 -63 2 -70 20 -70 18 0 20 7 20 75 0 62 -4 79 -20 95 -24
24 -36 25 -72 6 l-28 -15 0 50 c0 42 -3 49 -20 49 -19 0 -20 -7 -20 -130z"/>
<path d="M1864 795 c-39 -20 -54 -52 -54 -116 0 -70 21 -105 71 -120 33 -11
48 -10 82 2 l42 14 3 58 3 58 -48 -3 c-35 -2 -48 -7 -48 -18 0 -9 11 -16 28
-18 21 -3 27 -9 27 -27 0 -40 -66 -49 -101 -14 -18 18 -21 30 -17 77 3 38 11
59 23 68 26 19 65 17 87 -3 17 -15 20 -15 34 -1 15 15 14 17 -9 32 -37 25 -87
29 -123 11z"/>
<path d="M2671 796 c-35 -19 -50 -54 -51 -113 0 -64 15 -100 51 -119 36 -18
63 -18 100 1 36 19 49 50 49 116 0 64 -21 104 -61 118 -41 14 -58 13 -88 -3z
m93 -48 c9 -12 16 -43 16 -68 0 -58 -22 -90 -60 -90 -38 0 -60 32 -60 90 0 58
22 90 60 90 18 0 34 -8 44 -22z"/>
<path d="M1074 778 c3 -13 16 -67 28 -121 22 -93 24 -98 47 -95 21 3 27 12 41
68 28 110 23 113 60 -30 9 -32 15 -40 33 -40 21 0 25 10 50 113 32 132 32 127
8 127 -15 0 -21 -15 -36 -81 -9 -44 -21 -77 -25 -72 -4 4 -15 41 -25 81 -15
63 -20 72 -39 72 -20 0 -25 -9 -41 -80 -10 -44 -22 -77 -25 -73 -4 4 -15 41
-25 81 -14 60 -21 72 -37 72 -16 0 -19 -5 -14 -22z"/>
<path d="M1423 740 c-13 -5 -23 -14 -23 -19 0 -17 18 -22 43 -10 18 8 30 8 46
0 31 -17 26 -29 -16 -37 -21 -3 -48 -13 -60 -20 -48 -30 -10 -113 45 -99 15 4
42 6 60 6 l32 -1 0 70 c0 62 -3 74 -25 95 -25 26 -62 31 -102 15z m87 -110 c0
-24 -41 -53 -64 -44 -24 9 -20 43 7 54 37 15 57 12 57 -10z"/>
<path d="M2103 740 c-30 -12 -43 -41 -43 -92 0 -54 21 -85 63 -93 38 -7 87 9
87 29 0 10 -13 13 -52 12 -48 -1 -53 1 -56 22 -3 21 0 22 57 22 61 0 61 0 61
29 0 56 -62 94 -117 71z m58 -30 c34 -19 23 -40 -21 -40 -43 0 -55 20 -22 39
21 13 20 13 43 1z"/>
<path d="M2328 734 c-16 -8 -28 -10 -28 -4 0 5 -7 10 -15 10 -12 0 -15 -17
-15 -90 0 -73 3 -90 15 -90 12 0 15 13 15 58 0 62 14 86 55 94 21 3 28 29 10
34 -5 2 -22 -4 -37 -12z"/>
<path d="M2478 736 c-16 -8 -28 -11 -28 -5 0 5 -9 9 -20 9 -19 0 -20 -7 -20
-90 0 -83 1 -90 20 -90 18 0 20 7 20 65 0 60 2 66 24 77 45 20 56 6 56 -72 0
-63 2 -70 20 -70 18 0 20 7 20 79 0 71 -2 82 -22 95 -28 20 -36 20 -70 2z"/>
<path d="M2938 736 c-16 -8 -28 -11 -28 -5 0 5 -9 9 -20 9 -19 0 -20 -7 -20
-90 0 -83 1 -90 20 -90 18 0 20 7 20 65 0 60 2 66 24 77 45 20 56 6 56 -72 0
-63 2 -70 20 -70 18 0 20 7 20 75 0 62 -4 79 -20 95 -24 24 -36 25 -72 6z"/>
</g>
</svg>
